<svg xmlns="http://www.w3.org/2000/svg" xmlns:xlink="http://www.w3.org/1999/xlink" width="500" zoomAndPan="magnify" viewBox="0 0 375 374.999991" height="500" preserveAspectRatio="xMidYMid meet" version="1.0"><defs><g/></defs><g fill="#ffffff" fill-opacity="1"><g transform="translate(56.785646, 176.767035)"><g><path d="M 19.90625 1.351562 C 19.90625 0.214844 19.632812 -0.59375 19.632812 -2.757812 C 19.632812 -6.542969 20.933594 -16.496094 19.742188 -18.554688 C 19.527344 -19.039062 19.039062 -19.308594 18.5 -19.308594 C 18.121094 -19.308594 17.742188 -19.203125 17.417969 -18.984375 C 16.28125 -18.226562 15.253906 -16.117188 14.550781 -14.765625 C 10.710938 -6.976562 8.601562 3.355469 6.167969 12.222656 L 4.867188 16.117188 C 4.597656 16.714844 4.597656 16.984375 4.003906 17.148438 L 3.460938 14.496094 C 2 5.734375 3.246094 -8.707031 4.382812 -16.605469 C 5.355469 -23.152344 6.058594 -26.992188 7.734375 -33.15625 C 8.058594 -34.238281 8.925781 -36.242188 7.410156 -36.242188 C 5.246094 -36.242188 2.542969 -19.6875 2.378906 -18.605469 C 1.894531 -15.253906 1.460938 -11.953125 1.082031 -8.546875 L 0.539062 2.378906 C 0.539062 5.894531 0.867188 19.257812 4.003906 19.257812 C 5.085938 19.257812 5.410156 18.714844 5.894531 17.851562 C 6.871094 15.46875 7.679688 13.144531 8.277344 10.65625 C 9.195312 7.464844 10.007812 3.894531 10.871094 0.488281 C 12.007812 -4.164062 14.496094 -12.710938 17.472656 -16.714844 C 17.851562 -17.199219 17.796875 -17.363281 18.445312 -17.523438 C 18.445312 -16.714844 18.554688 -16.226562 18.554688 -15.792969 L 17.742188 -4.976562 C 17.578125 -2.597656 17.578125 3.40625 19.90625 3.40625 C 22.773438 3.40625 25.910156 -8.816406 26.828125 -11.25 C 28.289062 -14.820312 29.101562 -17.851562 30.886719 -21.796875 C 32.617188 -25.691406 33.589844 -27.910156 35.808594 -31.535156 C 36.617188 -32.941406 37.808594 -34.78125 39.214844 -35.484375 C 40.460938 -32.777344 37.863281 -19.363281 37.375 -16.335938 C 36.1875 -9.25 35.699219 -4.488281 34.832031 2.324219 L 33.210938 26.449219 C 33.265625 27.097656 33.265625 27.421875 33.320312 28.34375 C 33.375 29.207031 33.859375 29.75 34.292969 29.75 C 34.671875 29.75 35.050781 29.316406 35.050781 28.34375 C 35.050781 26.34375 34.996094 23.855469 35.160156 21.90625 C 36.023438 14.117188 36.402344 6.597656 37.59375 -1.40625 L 40.945312 -23.746094 C 41.214844 -25.585938 43.433594 -37.429688 39.214844 -37.429688 C 35.429688 -37.429688 29.207031 -22.394531 28.074219 -19.527344 C 25.910156 -14.007812 24.394531 -8.925781 22.339844 -3.570312 C 21.90625 -2.21875 20.878906 0.757812 19.90625 1.351562 Z M 19.90625 1.351562 "/></g></g></g><g fill="#ffffff" fill-opacity="1"><g transform="translate(99.294467, 176.767035)"><g><path d="M 1.570312 21.691406 C 0.703125 21.691406 -0.164062 21.367188 -0.59375 20.824219 C -2.757812 18.5 -0.59375 14.117188 0.703125 12.277344 C 2.054688 10.222656 3.355469 8.546875 5.085938 6.816406 C 5.515625 6.4375 5.734375 6.003906 6.058594 5.734375 L 11.359375 1.027344 C 11.792969 0.703125 12.117188 0.488281 12.550781 0.214844 C 12.277344 3.570312 9.789062 13.144531 8.167969 16.117188 C 6.871094 18.445312 4.652344 21.691406 1.570312 21.691406 Z M 2.8125 -4.761719 C 2.8125 -9.953125 6.003906 -13.578125 3.625 -13.578125 C 1.839844 -13.578125 0.539062 -8.167969 0.539062 -5.839844 C 0.539062 -3.949219 1.40625 -2.757812 2.597656 -2.757812 C 3.191406 -2.757812 3.839844 -3.082031 4.488281 -3.679688 C 5.949219 -5.03125 7.625 -7.789062 8.707031 -9.519531 C 9.574219 -10.765625 13.628906 -17.851562 14.117188 -18.175781 C 14.117188 -11.953125 13.628906 -8.277344 12.980469 -2.757812 C 12.925781 -1.785156 12.441406 -1.785156 11.46875 -0.917969 C 11.035156 -0.59375 10.816406 -0.488281 10.4375 -0.164062 C 5.734375 3.191406 -3.027344 12.171875 -3.027344 18.121094 C -3.027344 21.367188 -0.972656 23.257812 1.675781 23.257812 C 5.246094 23.257812 8.328125 20.011719 9.898438 17.039062 C 12.550781 12.710938 14.332031 4.488281 15.089844 -0.867188 C 15.199219 -1.621094 15.089844 -1.730469 15.632812 -2.109375 C 17.742188 -3.570312 19.960938 -4.976562 22.175781 -6.21875 C 22.824219 -6.597656 26.289062 -8.382812 26.289062 -9.195312 C 26.289062 -9.628906 26.070312 -9.789062 25.800781 -9.789062 C 24.988281 -9.789062 23.527344 -8.65625 23.203125 -8.4375 L 15.46875 -3.949219 C 15.46875 -5.464844 15.957031 -8.980469 15.957031 -11.683594 L 15.957031 -15.847656 C 15.957031 -16.929688 16.011719 -20.933594 14.875 -20.933594 C 13.738281 -20.933594 13.738281 -20.554688 12.875 -19.148438 C 10.980469 -15.957031 5.570312 -6.167969 2.8125 -4.761719 Z M 2.8125 -4.761719 "/></g></g></g><g fill="#ffffff" fill-opacity="1"><g transform="translate(124.767431, 176.767035)"><g><path d="M 0.109375 -4.164062 C 0.109375 -0.648438 0.214844 6.003906 3.136719 6.003906 C 4.488281 6.003906 5.515625 3.949219 6.113281 3.027344 C 7.300781 1.027344 8.761719 -2.757812 9.898438 -5.085938 C 10.167969 -5.625 11.847656 -8.761719 11.847656 -9.085938 C 11.847656 -9.359375 11.628906 -9.683594 11.359375 -9.683594 C 11.089844 -9.683594 10.765625 -9.464844 10.4375 -8.816406 C 8.707031 -5.734375 7.140625 -1.945312 5.515625 1.191406 C 4.921875 2.433594 4.164062 3.894531 2.976562 4.542969 C 0.539062 -0.109375 3.570312 -16.929688 5.085938 -22.394531 C 5.246094 -22.933594 6.652344 -26.070312 4.867188 -26.070312 C 3.460938 -26.070312 2.976562 -23.367188 2.488281 -21.796875 C 1.136719 -16.820312 0.109375 -9.519531 0.109375 -4.164062 Z M 0.109375 -4.164062 "/></g></g></g><g fill="#ffffff" fill-opacity="1"><g transform="translate(135.421897, 176.767035)"><g><path d="M 2.488281 -9.789062 C 2.867188 -11.140625 4.652344 -13.253906 6.113281 -13.523438 C 5.949219 -11.792969 3.839844 -10.492188 2.488281 -9.789062 Z M 0.0546875 -8.492188 C 0.0546875 -6.976562 0 -5.625 1.296875 -4.328125 C 2.21875 -3.40625 3.300781 -3.027344 4.433594 -3.027344 C 7.734375 -3.027344 11.46875 -6.328125 13.46875 -8.328125 C 13.957031 -8.925781 13.957031 -8.980469 13.792969 -9.789062 C 12.171875 -9.789062 13.035156 -9.574219 10.816406 -7.84375 C 10.4375 -7.574219 10.277344 -7.355469 9.84375 -7.03125 C 8.761719 -6.21875 6.492188 -4.652344 4.597656 -4.652344 C 3.949219 -4.652344 3.300781 -4.867188 2.8125 -5.355469 C 1.894531 -6.273438 2 -7.140625 2 -8.277344 C 3.679688 -8.382812 5.625 -9.953125 6.492188 -10.925781 C 8.167969 -13.035156 8.167969 -15.199219 5.789062 -15.199219 C 3.191406 -15.199219 0.0546875 -11.195312 0.0546875 -8.492188 Z M 0.0546875 -8.492188 "/></g></g></g><g fill="#ffffff" fill-opacity="1"><g transform="translate(148.29373, 176.767035)"><g/></g></g><g fill="#ffffff" fill-opacity="1"><g transform="translate(163.437009, 176.767035)"><g><path d="M 0.648438 8.925781 C 0.648438 6.761719 2.21875 4.328125 3.515625 2.757812 C 4.164062 2 5.464844 0.378906 6.328125 -0.109375 C 6.328125 1.40625 6.382812 2.597656 6.003906 3.839844 C 5.515625 5.625 4.328125 8.222656 2.867188 9.304688 C 2.488281 9.628906 1.839844 10.0625 1.351562 10.0625 C 0.972656 10.0625 0.648438 9.734375 0.648438 8.925781 Z M 0.164062 -8.761719 C 0.164062 -5.894531 3.949219 -4.976562 5.625 -1.894531 C 4.8125 -0.59375 -1.082031 4.058594 -1.082031 8.925781 C -1.082031 10.871094 0 11.898438 1.515625 11.898438 C 3.136719 11.898438 5.191406 10.65625 6.761719 8.003906 C 10.386719 1.839844 8.167969 -1.296875 8.382812 -2.054688 C 8.492188 -2.488281 12.332031 -5.355469 12.925781 -5.679688 L 16.605469 -8.222656 C 17.851562 -8.925781 17.957031 -9.84375 17.09375 -9.84375 C 16.605469 -9.84375 15.902344 -9.628906 14.984375 -8.980469 L 9.953125 -5.464844 C 9.140625 -4.761719 8.382812 -4.164062 7.519531 -3.570312 C 4.707031 -7.789062 0.648438 -7.625 3.515625 -10.871094 C 4.328125 -11.792969 4.164062 -11.519531 5.464844 -11.847656 C 5.789062 -13.199219 5.300781 -13.738281 4.542969 -13.738281 C 2.976562 -13.738281 0.164062 -11.519531 0.164062 -8.761719 Z M 0.164062 -8.761719 "/></g></g></g><g fill="#ffffff" fill-opacity="1"><g transform="translate(180.202751, 176.767035)"><g><path d="M 0.0546875 -6.597656 C 0.0546875 -4.761719 -0.214844 -2.109375 2.273438 -2.109375 C 3.949219 -2.109375 6.492188 -6.21875 7.355469 -7.734375 C 7.679688 -8.328125 8.4375 -9.574219 8.871094 -9.84375 C 8.871094 -7.25 9.085938 -2.757812 12.65625 -2.757812 C 14.28125 -2.757812 16.066406 -3.894531 17.523438 -5.246094 C 18.175781 -5.839844 20.664062 -7.898438 20.664062 -8.816406 C 20.664062 -9.410156 20.230469 -9.519531 19.796875 -9.519531 C 18.769531 -9.519531 15.199219 -4.488281 12.820312 -4.488281 C 11.792969 -4.488281 10.980469 -5.410156 10.65625 -8.003906 C 10.492188 -9.410156 11.195312 -12.980469 9.734375 -12.980469 C 8.707031 -12.980469 8.382812 -12.117188 7.679688 -11.089844 L 4.433594 -6.328125 C 3.894531 -5.625 3.300781 -4.597656 2.433594 -4.328125 C 1.621094 -7.953125 4.921875 -13.628906 4.921875 -13.847656 C 4.921875 -14.332031 4.761719 -14.332031 4.707031 -14.710938 C 4.328125 -14.929688 4.003906 -14.984375 3.730469 -14.984375 C 3.300781 -14.984375 2.921875 -14.765625 2.542969 -14.332031 C 1.191406 -12.601562 0.0546875 -8.925781 0.0546875 -6.597656 Z M 10.167969 -21.039062 C 10.167969 -19.6875 8.382812 -17.472656 7.519531 -16.445312 C 7.25 -16.171875 6.761719 -15.363281 6.113281 -15.363281 C 5.894531 -15.363281 5.679688 -15.414062 5.464844 -15.632812 C 4.707031 -16.335938 5.570312 -17.523438 5.949219 -18.011719 C 6.976562 -19.527344 7.679688 -22.070312 9.304688 -22.070312 C 9.734375 -22.070312 10.167969 -21.472656 10.167969 -21.039062 Z M 10.167969 -21.039062 "/></g></g></g><g fill="#ffffff" fill-opacity="1"><g transform="translate(199.618521, 176.767035)"><g><path d="M 1.515625 -2.8125 C 3.625 -2.8125 5.789062 -9.734375 7.574219 -10.925781 C 8.058594 -9.898438 7.300781 -7.734375 8.382812 -4.488281 C 8.871094 -3.027344 9.789062 -1.570312 11.46875 -1.570312 C 11.792969 -1.570312 12.117188 -1.621094 12.496094 -1.730469 C 13.738281 -2.054688 15.46875 -4.21875 16.226562 -5.191406 C 16.550781 -5.625 19.742188 -9.628906 17.632812 -9.628906 C 16.660156 -9.628906 13.792969 -3.191406 11.628906 -3.191406 C 9.628906 -3.191406 9.519531 -8.003906 9.519531 -9.359375 L 9.195312 -12.386719 C 8.925781 -12.980469 8.546875 -13.253906 8.167969 -13.253906 C 6.871094 -13.253906 5.246094 -10.492188 4.921875 -9.898438 L 2.324219 -5.949219 C 2.324219 -10.167969 5.839844 -15.253906 3.460938 -15.253906 C 1.40625 -15.253906 -1.945312 -2.8125 1.515625 -2.8125 Z M 1.515625 -2.8125 "/></g></g></g><g fill="#ffffff" fill-opacity="1"><g transform="translate(216.979173, 176.767035)"><g><path d="M 0 -7.410156 C 0 -4.003906 1.515625 -0.8125 5.246094 -0.8125 C 9.085938 -0.8125 12.496094 -4.542969 14.710938 -7.355469 C 14.984375 -7.679688 15.363281 -8.167969 15.523438 -8.546875 C 15.847656 -9.25 15.578125 -9.84375 15.089844 -9.84375 C 14.820312 -9.84375 14.386719 -9.574219 14.007812 -9.03125 C 12.007812 -6.328125 9.03125 -2.597656 5.300781 -2.597656 C 4.003906 -2.597656 3.40625 -3.300781 3.027344 -4.273438 C 1.730469 -6.921875 3.625 -11.683594 5.515625 -12.980469 C 5.625 -12.0625 6.058594 -11.574219 6.492188 -11.574219 C 6.871094 -11.574219 7.195312 -12.007812 7.195312 -12.980469 C 7.195312 -14.386719 6.542969 -15.144531 5.464844 -15.144531 C 2.324219 -15.144531 0 -9.953125 0 -7.410156 Z M 0 -7.410156 "/></g></g></g><g fill="#ffffff" fill-opacity="1"><g transform="translate(231.203056, 176.767035)"><g><path d="M -0.324219 -4.488281 C -0.324219 -2.867188 -0.164062 7.085938 1.785156 7.085938 C 2.8125 7.085938 3.136719 6.871094 3.515625 5.734375 C 4.164062 3.730469 4.597656 1.460938 5.464844 -0.8125 C 6.113281 -2.433594 8.167969 -7.574219 9.195312 -8.328125 C 9.195312 -6.816406 9.25 -4.382812 9.464844 -3.191406 C 9.84375 -0.972656 10.65625 0 11.792969 0 C 14.332031 0 16.820312 -4.542969 17.902344 -6.492188 C 18.445312 -7.574219 19.148438 -8.167969 18.824219 -9.464844 C 18.605469 -9.519531 18.390625 -9.574219 18.226562 -9.574219 C 17.796875 -9.574219 17.472656 -9.195312 16.820312 -8.058594 C 16.390625 -7.195312 15.957031 -6.4375 15.46875 -5.625 C 14.550781 -4.328125 13.414062 -2.109375 11.792969 -1.730469 C 11.089844 -3.082031 11.089844 -4.328125 11.089844 -6.382812 C 11.089844 -7.355469 11.089844 -10.65625 9.898438 -10.65625 C 8.277344 -10.65625 7.789062 -9.519531 6.976562 -8.058594 C 4.652344 -3.839844 4.164062 -2.21875 2.703125 2.109375 L 2.273438 3.136719 L 2.109375 -2.921875 C 2.109375 -8.328125 2.652344 -14.710938 3.460938 -19.6875 C 3.730469 -21.527344 4.542969 -24.070312 4.164062 -25.746094 C 3.785156 -25.800781 3.515625 -25.855469 3.300781 -25.855469 C 2.757812 -25.855469 2.597656 -25.476562 2.109375 -24.070312 C 1.242188 -20.609375 0.378906 -17.09375 0.214844 -13.46875 C 0.164062 -12.65625 0.0546875 -11.414062 0 -10.601562 Z M -0.324219 -4.488281 "/></g></g></g><g fill="#ffffff" fill-opacity="1"><g transform="translate(248.834109, 176.767035)"><g><path d="M 2.488281 -9.789062 C 2.867188 -11.140625 4.652344 -13.253906 6.113281 -13.523438 C 5.949219 -11.792969 3.839844 -10.492188 2.488281 -9.789062 Z M 0.0546875 -8.492188 C 0.0546875 -6.976562 0 -5.625 1.296875 -4.328125 C 2.21875 -3.40625 3.300781 -3.027344 4.433594 -3.027344 C 7.734375 -3.027344 11.46875 -6.328125 13.46875 -8.328125 C 13.957031 -8.925781 13.957031 -8.980469 13.792969 -9.789062 C 12.171875 -9.789062 13.035156 -9.574219 10.816406 -7.84375 C 10.4375 -7.574219 10.277344 -7.355469 9.84375 -7.03125 C 8.761719 -6.21875 6.492188 -4.652344 4.597656 -4.652344 C 3.949219 -4.652344 3.300781 -4.867188 2.8125 -5.355469 C 1.894531 -6.273438 2 -7.140625 2 -8.277344 C 3.679688 -8.382812 5.625 -9.953125 6.492188 -10.925781 C 8.167969 -13.035156 8.167969 -15.199219 5.789062 -15.199219 C 3.191406 -15.199219 0.0546875 -11.195312 0.0546875 -8.492188 Z M 0.0546875 -8.492188 "/></g></g></g><g fill="#ffffff" fill-opacity="1"><g transform="translate(261.705942, 176.767035)"><g><path d="M 5.136719 -1.242188 C 5.246094 -1.839844 8.816406 -7.679688 9.304688 -8.492188 C 10.167969 -10.007812 12.875 -14.660156 12.277344 -16.820312 C 12.0625 -17.472656 11.628906 -17.6875 11.089844 -17.6875 C 8.707031 -17.6875 3.949219 -12.820312 2.976562 -11.738281 C 0.917969 -9.359375 0.109375 -8.816406 1.136719 -7.25 C 4.164062 -7.25 1.460938 -7.84375 5.679688 -12.0625 C 6.167969 -12.550781 6.382812 -12.875 6.816406 -13.359375 C 7.300781 -13.847656 7.574219 -14.007812 8.113281 -14.441406 C 8.707031 -15.089844 10.007812 -16.117188 10.980469 -16.28125 C 10.980469 -14.332031 9.25 -11.035156 8.167969 -9.140625 L 4.382812 -2.867188 C 3.894531 -2.109375 1.730469 0.972656 2.597656 1.839844 C 2.703125 1.945312 2.867188 2 3.027344 2 C 3.894531 2 5.191406 0.8125 5.679688 0.433594 C 7.898438 -1.351562 8.707031 -2.054688 11.195312 -3.570312 C 12.0625 -4.109375 13.359375 -5.03125 14.710938 -5.03125 C 15.089844 -4.058594 14.875 -1.136719 14.0625 -0.214844 L 10.765625 2.542969 C 9.25 4.109375 6.816406 6.167969 5.464844 7.84375 C 5.191406 8.222656 4.976562 8.382812 4.652344 8.601562 C 4.164062 9.25 3.785156 9.734375 3.355469 10.386719 C 1.839844 12.222656 0.917969 13.847656 -0.109375 15.957031 C -0.648438 17.363281 -1.191406 19.796875 0.433594 20.445312 C 0.648438 20.5 0.867188 20.554688 1.136719 20.554688 C 3.40625 20.554688 6.492188 16.984375 7.679688 15.6875 L 9.574219 13.144531 C 9.898438 12.765625 10.0625 12.601562 10.332031 12.222656 C 11.953125 9.683594 13.414062 7.355469 14.710938 4.382812 C 16.714844 -0.214844 15.144531 0.8125 17.902344 -1.515625 C 18.226562 -1.785156 18.28125 -1.785156 18.660156 -2.164062 C 20.335938 -3.730469 23.476562 -6.273438 24.933594 -8.003906 C 25.367188 -8.492188 25.421875 -8.4375 25.476562 -9.140625 C 25.152344 -9.359375 24.988281 -9.464844 24.828125 -9.464844 C 24.664062 -9.464844 24.503906 -9.359375 24.179688 -9.140625 L 21.039062 -6.273438 C 19.851562 -4.976562 18.175781 -3.570312 16.769531 -2.488281 C 16.769531 -3.40625 17.09375 -5.679688 15.738281 -6.597656 C 15.363281 -6.816406 14.929688 -6.921875 14.550781 -6.921875 C 13.46875 -6.921875 12.386719 -6.273438 11.628906 -5.789062 L 6.761719 -2.433594 C 6.4375 -2.21875 6.328125 -2.054688 6.003906 -1.785156 C 5.515625 -1.40625 5.679688 -1.351562 5.136719 -1.242188 Z M 0.8125 18.660156 C 0.8125 16.171875 3.136719 13.144531 4.542969 11.25 L 6.167969 9.25 C 7.410156 7.953125 8.382812 6.652344 9.683594 5.570312 C 10.65625 4.707031 12.65625 2.921875 13.578125 2.273438 C 12.925781 4.761719 9.789062 10.007812 8.4375 12.0625 C 7.574219 13.414062 3.082031 19.09375 1.191406 19.09375 C 0.972656 19.09375 0.8125 18.984375 0.8125 18.660156 Z M 0.8125 18.660156 "/></g></g></g><g fill="#3ca9ad" fill-opacity="1"><g transform="translate(106.156736, 225.517032)"><g><path d="M 12.335938 4.574219 C 11.503906 4.574219 10.257812 4.390625 9.75 4.113281 C 9.75 2.726562 10.859375 -2.585938 11.136719 -4.25 C 11.828125 -7.578125 12.9375 -11.320312 14.046875 -14.648438 L 15.847656 -19.453125 C 17.605469 -23.933594 22.039062 -31.882812 27.679688 -31.882812 C 31.558594 -31.882812 33.777344 -27.539062 33.777344 -22.457031 C 33.777344 -16.359375 31.191406 -9.425781 27.402344 -4.574219 C 24.167969 -0.183594 18.484375 4.574219 12.335938 4.574219 Z M 9.75 -5.082031 C 9.75 -10.027344 9.980469 -15.109375 9.980469 -20.421875 C 9.980469 -23.519531 9.886719 -28.601562 7.253906 -28.601562 C 5.777344 -28.601562 4.4375 -25.597656 3.925781 -24.304688 C 2.773438 -21.347656 1.988281 -18.113281 1.988281 -14.738281 C 1.988281 -13.953125 1.800781 -13.675781 1.894531 -13.078125 C 2.125 -11.183594 2.171875 -10.027344 2.863281 -8.179688 C 3.511719 -6.609375 4.390625 -6.097656 4.945312 -6.097656 C 5.453125 -6.097656 5.730469 -6.515625 5.453125 -6.976562 C 5.222656 -7.484375 4.296875 -7.300781 3.652344 -10.441406 C 3.328125 -12.292969 3.1875 -14.601562 3.464844 -16.679688 C 3.789062 -18.296875 4.203125 -20.699219 4.757812 -22.226562 C 5.3125 -23.566406 6.238281 -26.0625 7.253906 -26.707031 C 8.179688 -24.675781 7.671875 -17.929688 7.671875 -15.480469 C 7.671875 -12.523438 7.207031 -7.671875 7.253906 -4.804688 C 7.253906 -3.972656 7.164062 -3.695312 7.117188 -3.050781 C 7.023438 -2.449219 7.117188 -1.757812 7.070312 -1.15625 C 7.070312 -0.414062 6.929688 -0.324219 6.929688 0.460938 C 6.886719 2.21875 6.976562 2.773438 6.746094 2.773438 C 6.609375 2.773438 6.375 2.542969 5.960938 2.308594 C 5.777344 2.171875 5.542969 2.125 5.40625 2.125 C 4.714844 2.125 4.527344 3.140625 5.636719 3.925781 C 6.007812 4.203125 6.421875 4.4375 6.746094 4.714844 C 6.746094 5.960938 6.652344 6.699219 6.652344 8.085938 C 6.652344 9.289062 6.515625 10.210938 6.515625 11.550781 C 6.515625 13.863281 6.007812 22.085938 6.515625 23.980469 C 6.792969 24.121094 7.023438 24.167969 7.253906 24.167969 C 8.410156 24.167969 8.132812 21.949219 8.363281 19.730469 C 8.503906 18.390625 8.546875 14.554688 8.734375 13.398438 L 9.378906 5.867188 C 10.210938 5.914062 10.996094 6.332031 12.476562 6.332031 C 21.71875 6.332031 30.449219 -3.28125 33.453125 -11.414062 C 35.441406 -16.632812 37.152344 -24.675781 33.777344 -29.941406 C 32.34375 -32.160156 30.265625 -33.5 27.769531 -33.5 C 24.488281 -33.5 22.410156 -31.746094 20.191406 -29.527344 C 15.480469 -24.8125 11.921875 -14.09375 10.351562 -7.394531 L 9.796875 -5.175781 C 9.796875 -5.128906 9.75 -5.128906 9.75 -5.082031 Z M 9.75 -5.082031 "/></g></g></g><g fill="#3ca9ad" fill-opacity="1"><g transform="translate(142.937496, 225.517032)"><g><path d="M 0.554688 7.625 C 0.554688 5.777344 1.894531 3.695312 3.003906 2.355469 C 3.558594 1.710938 4.667969 0.324219 5.40625 -0.09375 C 5.40625 1.203125 5.453125 2.21875 5.128906 3.28125 C 4.714844 4.804688 3.695312 7.023438 2.449219 7.949219 C 2.125 8.226562 1.570312 8.59375 1.15625 8.59375 C 0.832031 8.59375 0.554688 8.316406 0.554688 7.625 Z M 0.136719 -7.484375 C 0.136719 -5.035156 3.375 -4.25 4.804688 -1.617188 C 4.113281 -0.507812 -0.925781 3.464844 -0.925781 7.625 C -0.925781 9.289062 0 10.164062 1.292969 10.164062 C 2.679688 10.164062 4.4375 9.101562 5.777344 6.839844 C 8.871094 1.570312 6.976562 -1.109375 7.164062 -1.757812 C 7.253906 -2.125 10.535156 -4.574219 11.042969 -4.851562 L 14.1875 -7.023438 C 15.25 -7.625 15.339844 -8.410156 14.601562 -8.410156 C 14.1875 -8.410156 13.585938 -8.226562 12.800781 -7.671875 L 8.503906 -4.667969 C 7.808594 -4.066406 7.164062 -3.558594 6.421875 -3.050781 C 4.019531 -6.652344 0.554688 -6.515625 3.003906 -9.289062 C 3.695312 -10.074219 3.558594 -9.84375 4.667969 -10.121094 C 4.945312 -11.273438 4.527344 -11.738281 3.882812 -11.738281 C 2.542969 -11.738281 0.136719 -9.84375 0.136719 -7.484375 Z M 0.136719 -7.484375 "/></g></g></g><g fill="#3ca9ad" fill-opacity="1"><g transform="translate(157.261687, 225.517032)"><g><path d="M 3.835938 0.183594 C 6.007812 0.183594 7.761719 -1.847656 8.871094 -3.003906 C 9.609375 -3.742188 12.382812 -6.839844 12.382812 -7.714844 C 12.382812 -8.132812 12.246094 -8.269531 12.058594 -8.269531 C 11.183594 -8.269531 8.734375 -4.992188 8.546875 -4.757812 C 7.855469 -3.882812 5.453125 -1.433594 3.972656 -1.433594 C 2.726562 -1.433594 2.21875 -4.160156 2.21875 -5.542969 C 2.21875 -10.257812 4.066406 -12.335938 1.941406 -12.335938 C 1.015625 -12.335938 0.554688 -10.257812 0.414062 -9.289062 C -0.09375 -6.929688 0 -3.742188 1.109375 -1.664062 C 1.617188 -0.785156 2.585938 0.183594 3.835938 0.183594 Z M 2.355469 -18.160156 C 2.355469 -17.144531 2.957031 -16.679688 3.605469 -16.679688 C 4.527344 -16.679688 5.5 -17.699219 4.621094 -19.40625 C 4.34375 -19.914062 4.019531 -20.101562 3.695312 -20.101562 C 3.003906 -20.101562 2.355469 -19.222656 2.355469 -18.160156 Z M 2.355469 -18.160156 "/></g></g></g><g fill="#3ca9ad" fill-opacity="1"><g transform="translate(168.767256, 225.517032)"><g><path d="M 0 -6.332031 C 0 -3.417969 1.292969 -0.691406 4.480469 -0.691406 C 7.761719 -0.691406 10.675781 -3.882812 12.570312 -6.285156 C 12.800781 -6.5625 13.121094 -6.976562 13.261719 -7.300781 C 13.539062 -7.902344 13.308594 -8.410156 12.890625 -8.410156 C 12.660156 -8.410156 12.292969 -8.179688 11.96875 -7.714844 C 10.257812 -5.40625 7.714844 -2.21875 4.527344 -2.21875 C 3.417969 -2.21875 2.910156 -2.820312 2.585938 -3.652344 C 1.480469 -5.914062 3.097656 -9.980469 4.714844 -11.089844 C 4.804688 -10.304688 5.175781 -9.886719 5.542969 -9.886719 C 5.867188 -9.886719 6.144531 -10.257812 6.144531 -11.089844 C 6.144531 -12.292969 5.589844 -12.9375 4.667969 -12.9375 C 1.988281 -12.9375 0 -8.503906 0 -6.332031 Z M 0 -6.332031 "/></g></g></g><g fill="#3ca9ad" fill-opacity="1"><g transform="translate(180.919713, 225.517032)"><g><path d="M 2.308594 -1.0625 C 1.292969 -3.1875 3.417969 -7.347656 3.742188 -8.6875 C 5.359375 -7.625 4.203125 -1.570312 2.308594 -1.0625 Z M 0 -2.632812 C 0 -0.230469 1.015625 0.96875 2.21875 0.96875 C 3.605469 0.96875 5.3125 -0.648438 6.007812 -3.835938 C 7.023438 -8.59375 4.804688 -9.378906 4.574219 -10.257812 C 4.804688 -10.628906 5.222656 -10.90625 5.359375 -11.226562 C 5.5 -11.597656 5.222656 -12.335938 4.621094 -12.335938 C 2.355469 -12.335938 0 -4.714844 0 -2.632812 Z M 7.484375 -18.296875 C 7.484375 -17.144531 5.960938 -15.25 5.222656 -14.371094 C 4.992188 -14.140625 4.574219 -13.445312 4.019531 -13.445312 C 3.835938 -13.445312 3.652344 -13.492188 3.464844 -13.675781 C 2.820312 -14.277344 3.558594 -15.292969 3.882812 -15.710938 C 4.757812 -17.003906 5.359375 -19.175781 6.746094 -19.175781 C 7.117188 -19.175781 7.484375 -18.667969 7.484375 -18.296875 Z M 7.484375 -18.296875 "/></g></g></g><g fill="#3ca9ad" fill-opacity="1"><g transform="translate(190.022515, 225.517032)"><g><path d="M 0.09375 -3.558594 C 0.09375 -0.554688 0.183594 5.128906 2.679688 5.128906 C 3.835938 5.128906 4.714844 3.375 5.222656 2.585938 C 6.238281 0.878906 7.484375 -2.355469 8.457031 -4.34375 C 8.6875 -4.804688 10.121094 -7.484375 10.121094 -7.761719 C 10.121094 -7.992188 9.933594 -8.269531 9.703125 -8.269531 C 9.472656 -8.269531 9.195312 -8.085938 8.917969 -7.53125 C 7.4375 -4.898438 6.097656 -1.664062 4.714844 1.015625 C 4.203125 2.078125 3.558594 3.328125 2.542969 3.882812 C 0.460938 -0.09375 3.050781 -14.464844 4.34375 -19.128906 C 4.480469 -19.59375 5.683594 -22.273438 4.160156 -22.273438 C 2.957031 -22.273438 2.542969 -19.960938 2.125 -18.621094 C 0.96875 -14.371094 0.09375 -8.132812 0.09375 -3.558594 Z M 0.09375 -3.558594 "/></g></g></g><g fill="#3ca9ad" fill-opacity="1"><g transform="translate(199.125316, 225.517032)"><g><path d="M 2.308594 -1.0625 C 1.292969 -3.1875 3.417969 -7.347656 3.742188 -8.6875 C 5.359375 -7.625 4.203125 -1.570312 2.308594 -1.0625 Z M 0 -2.632812 C 0 -0.230469 1.015625 0.96875 2.21875 0.96875 C 3.605469 0.96875 5.3125 -0.648438 6.007812 -3.835938 C 7.023438 -8.59375 4.804688 -9.378906 4.574219 -10.257812 C 4.804688 -10.628906 5.222656 -10.90625 5.359375 -11.226562 C 5.5 -11.597656 5.222656 -12.335938 4.621094 -12.335938 C 2.355469 -12.335938 0 -4.714844 0 -2.632812 Z M 0 -2.632812 "/></g></g></g><g fill="#3ca9ad" fill-opacity="1"><g transform="translate(208.228118, 225.517032)"><g><path d="M 0 17.050781 C -3.695312 17.050781 -0.785156 10.351562 -0.277344 9.101562 C 0.460938 7.394531 2.585938 4.390625 3.605469 3.097656 C 3.925781 2.542969 5.683594 0.277344 6.285156 0.09375 L 6.097656 2.773438 C 5.636719 6.5625 5.40625 10.8125 3.28125 14.417969 C 2.632812 15.480469 1.203125 17.050781 0 17.050781 Z M -0.507812 -3.925781 C -0.507812 -3.1875 -0.648438 -1.800781 0.738281 -1.800781 C 1.894531 -1.800781 3.140625 -3.140625 3.789062 -3.789062 C 4.804688 -4.714844 5.777344 -6.421875 6.285156 -6.609375 C 6.285156 -4.714844 6.609375 -2.355469 5.820312 -1.523438 C 3.003906 1.480469 0.691406 4.4375 -1.15625 8.179688 C -2.449219 10.765625 -2.957031 12.105469 -2.957031 15.0625 C -2.957031 16.910156 -1.710938 18.34375 0 18.34375 C 1.617188 18.34375 3.652344 17.050781 5.453125 13.539062 C 6.886719 10.628906 8.179688 4.34375 8.132812 0.648438 C 8.132812 -0.183594 8.179688 -0.925781 8.269531 -1.800781 C 8.363281 -2.585938 9.058594 -2.773438 9.566406 -3.1875 C 10.675781 -4.296875 14.507812 -6.976562 14.601562 -7.164062 C 14.785156 -7.53125 14.648438 -8.039062 14.277344 -8.039062 C 12.660156 -8.039062 9.101562 -4.296875 8.132812 -4.066406 C 8.132812 -5.683594 8.269531 -9.472656 6.886719 -9.472656 C 6.144531 -9.472656 5.683594 -8.457031 5.359375 -7.992188 C 4.804688 -7.207031 3.925781 -5.960938 3.328125 -5.3125 C 2.726562 -4.714844 1.847656 -3.464844 0.738281 -3.1875 C 0.738281 -5.5 4.113281 -11.597656 6.792969 -11.597656 C 7.808594 -11.597656 7.484375 -10.164062 8.59375 -10.074219 C 9.378906 -11.273438 8.546875 -12.84375 6.839844 -12.84375 C 3.558594 -12.84375 -0.507812 -6.929688 -0.507812 -3.925781 Z M -0.507812 -3.925781 "/></g></g></g><g fill="#3ca9ad" fill-opacity="1"><g transform="translate(222.090231, 225.517032)"><g><path d="M 0 -4.667969 C 0 -3.003906 0.136719 -2.21875 1.847656 -2.21875 C 3.1875 -2.21875 4.621094 -6.5625 5.5 -7.164062 C 5.5 -5.175781 6.976562 -2.773438 9.289062 -2.773438 C 10.074219 -2.773438 10.953125 -3.050781 11.875 -3.695312 L 13.261719 -4.804688 C 15.617188 -7.070312 15.339844 -8.226562 14.648438 -8.226562 C 14.371094 -8.226562 14.046875 -8.085938 13.816406 -7.761719 C 13.167969 -7.070312 13.03125 -6.652344 12.152344 -5.867188 C 11.136719 -4.851562 10.164062 -4.296875 9.289062 -4.296875 C 8.316406 -4.296875 7.484375 -5.035156 7.117188 -6.699219 C 6.699219 -8.457031 7.484375 -10.535156 5.867188 -10.535156 C 5.269531 -10.535156 3.375 -6.609375 2.449219 -5.175781 L 2.078125 -4.621094 C 1.847656 -4.34375 1.988281 -4.527344 1.847656 -4.390625 C 1.847656 -5.914062 2.496094 -7.671875 3.097656 -8.640625 C 4.4375 -10.953125 5.359375 -11.597656 6.054688 -11.597656 C 6.929688 -11.597656 7.484375 -10.535156 8.132812 -10.535156 C 9.332031 -10.535156 8.132812 -13.167969 5.960938 -13.167969 C 2.726562 -13.167969 0 -7.300781 0 -4.667969 Z M 0 -4.667969 "/></g></g></g><path fill="#ffffff" d="M 314.8125 137.574219 C 311.269531 138.480469 307.480469 140.089844 305.015625 142.171875 C 302.347656 144.429688 301.222656 146.621094 301.019531 148.507812 C 300.804688 150.484375 301.589844 152.167969 302.789062 153.34375 C 307.511719 157.976562 315.410156 157.953125 321.808594 154.554688 C 325.753906 152.460938 328.851562 150.46875 331.257812 148.621094 C 330.574219 150.449219 329.582031 152.277344 328.214844 154.074219 C 322.773438 161.21875 315.164062 164.867188 307.992188 166.683594 C 297.179688 169.421875 287.355469 168 287.355469 168 C 287.011719 167.949219 286.691406 168.1875 286.640625 168.53125 C 286.589844 168.871094 286.828125 169.191406 287.171875 169.242188 C 287.171875 169.242188 297.234375 170.703125 308.300781 167.902344 C 315.722656 166.023438 323.585938 162.230469 329.214844 154.835938 C 331.136719 152.308594 332.363281 149.730469 333.042969 147.167969 C 334.410156 145.988281 335.492188 144.875 336.335938 143.84375 C 337.457031 142.46875 338.164062 141.222656 338.578125 140.132812 C 338.660156 140.101562 338.742188 140.066406 338.828125 140.027344 C 340.726562 139.175781 341.585938 137.214844 342 134.710938 C 342.550781 131.34375 342.324219 126.945312 343.539062 123.449219 C 345.449219 117.949219 349.992188 115.824219 353.246094 116.5625 C 353.585938 116.636719 353.921875 116.425781 353.996094 116.085938 C 354.074219 115.75 353.863281 115.414062 353.523438 115.335938 C 349.816406 114.5 344.527344 116.769531 342.351562 123.039062 C 341.113281 126.601562 341.320312 131.074219 340.757812 134.507812 C 340.480469 136.195312 340.035156 137.625 339.011719 138.453125 C 339.242188 136.648438 338.570312 135.445312 337.769531 134.921875 C 337.347656 134.644531 336.875 134.539062 336.417969 134.605469 C 334.558594 134.875 333.988281 136.734375 334.546875 138.304688 C 334.871094 139.214844 335.570312 140 336.550781 140.273438 C 336.726562 140.324219 336.914062 140.355469 337.109375 140.371094 C 336.722656 141.183594 336.152344 142.078125 335.359375 143.050781 C 334.832031 143.695312 334.210938 144.371094 333.480469 145.074219 C 334.183594 140.511719 333.273438 136.058594 331.597656 132.09375 C 328.75 125.359375 323.6875 120.070312 320.71875 118.136719 C 316.15625 115.164062 312.355469 113.917969 309.5 113.902344 C 307.460938 113.894531 305.875 114.5 304.777344 115.542969 C 303.667969 116.589844 303.042969 118.089844 302.984375 119.910156 C 302.902344 122.46875 303.953125 125.695312 306.351562 129.121094 C 308.664062 132.421875 311.824219 135.414062 314.8125 137.574219 Z M 331.910156 146.484375 C 333.101562 141.609375 332.222656 136.800781 330.4375 132.582031 C 327.710938 126.128906 322.878906 121.042969 320.035156 119.1875 C 315.738281 116.390625 312.179688 115.171875 309.492188 115.160156 C 307.835938 115.152344 306.535156 115.609375 305.640625 116.453125 C 304.757812 117.289062 304.289062 118.5 304.242188 119.953125 C 304.164062 122.304688 305.179688 125.253906 307.382812 128.398438 C 309.851562 131.925781 313.320312 135.105469 316.4375 137.207031 C 318.054688 136.882812 319.558594 136.730469 320.789062 136.761719 C 321.992188 136.792969 322.949219 137.015625 323.546875 137.398438 C 324.082031 137.738281 324.378906 138.199219 324.421875 138.761719 C 324.488281 139.566406 324.269531 140.128906 323.898438 140.5 C 323.386719 141.011719 322.480469 141.195312 321.285156 140.933594 C 319.9375 140.640625 318.140625 139.785156 316.199219 138.527344 C 312.554688 139.308594 308.417969 140.941406 305.828125 143.132812 C 303.492188 145.109375 302.449219 146.988281 302.269531 148.640625 C 302.101562 150.199219 302.726562 151.523438 303.667969 152.449219 C 308.027344 156.71875 315.316406 156.578125 321.21875 153.445312 C 325.933594 150.945312 329.398438 148.605469 331.910156 146.484375 Z M 318.027344 138.199219 C 319.363281 138.96875 320.578125 139.496094 321.554688 139.707031 C 321.9375 139.789062 322.277344 139.824219 322.558594 139.789062 C 322.746094 139.765625 322.902344 139.71875 323.011719 139.613281 C 323.167969 139.457031 323.199219 139.203125 323.171875 138.863281 C 323.148438 138.617188 322.941406 138.472656 322.664062 138.347656 C 322.195312 138.136719 321.539062 138.039062 320.753906 138.015625 C 319.953125 137.996094 319.023438 138.058594 318.027344 138.199219 Z M 337.597656 139.101562 C 337.667969 138.851562 337.71875 138.613281 337.75 138.382812 C 337.90625 137.320312 337.683594 136.539062 337.257812 136.117188 C 337.0625 135.921875 336.828125 135.816406 336.597656 135.847656 C 335.832031 135.960938 335.554688 136.632812 335.605469 137.304688 C 335.660156 137.984375 336.027344 138.695312 336.679688 138.988281 C 336.945312 139.109375 337.25 139.152344 337.597656 139.101562 Z M 337.597656 139.101562 " fill-opacity="1" fill-rule="evenodd"/></svg>